<?xml version="1.0" standalone="no"?>
<!DOCTYPE svg PUBLIC "-//W3C//DTD SVG 20010904//EN"
 "http://www.w3.org/TR/2001/REC-SVG-20010904/DTD/svg10.dtd">
<svg version="1.0" xmlns="http://www.w3.org/2000/svg"
 width="500.000000pt" height="500.000000pt" viewBox="0 0 500.000000 500.000000"
 preserveAspectRatio="xMidYMid meet">
<metadata>
Created by potrace 1.11, written by Peter Selinger 2001-2013
</metadata>
<g transform="translate(0.000000,500.000000) scale(0.100000,-0.100000)"
fill="#000000" stroke="none">
<path d="M521 4989 c-226 -38 -426 -220 -498 -454 -17 -57 -18 -146 -18 -2035
0 -1889 1 -1978 18 -2035 66 -212 230 -376 442 -442 57 -17 146 -18 2045 -18
l1985 0 73 27 c102 37 174 82 246 154 72 72 117 144 154 246 l27 73 0 1995 0
1995 -27 73 c-37 102 -82 174 -154 246 -72 72 -144 117 -246 154 l-73 27
-1960 1 c-1122 1 -1983 -2 -2014 -7z m4386 -1136 c10 -127 4 -130 -312 -158
-99 -8 -219 -22 -266 -31 l-86 -16 -7 -226 c-4 -125 -11 -285 -15 -357 -4 -71
-7 -131 -7 -132 1 -1 55 12 121 28 167 41 335 69 416 69 65 0 69 -1 75 -26 7
-28 -3 -134 -16 -168 -8 -21 -16 -23 -122 -29 -115 -6 -340 -43 -435 -72 l-53
-16 0 -287 c0 -256 6 -368 26 -523 l6 -46 -53 -26 c-84 -39 -402 -117 -417
-102 -3 3 -9 58 -14 123 -9 129 -5 301 19 762 8 168 16 433 17 590 l1 285 -30
54 c-16 29 -53 77 -82 107 -34 34 -53 62 -53 77 0 21 10 27 88 50 152 47 249
65 592 112 184 25 389 56 455 69 l120 23 13 -31 c8 -17 16 -63 19 -103z
m-1926 -250 c61 -123 123 -389 224 -972 83 -473 125 -620 202 -696 22 -22 32
-19 115 35 42 27 80 50 85 50 4 0 23 -20 41 -45 40 -53 39 -55 -55 -146 -171
-165 -379 -249 -510 -205 -136 45 -205 174 -254 474 l-23 142 -48 0 c-74 0
-230 -26 -360 -60 -179 -46 -162 -32 -192 -157 -43 -181 -64 -282 -86 -418
-13 -75 -28 -137 -37 -147 -22 -25 -78 -41 -116 -33 -57 11 -127 47 -127 66 0
14 -21 4 -95 -45 -172 -116 -331 -152 -433 -98 -126 67 -276 305 -432 690 -60
146 -52 140 -145 118 l-50 -11 -7 -85 c-16 -214 -30 -595 -25 -688 l6 -104
-74 -34 c-79 -36 -238 -79 -338 -90 l-60 -7 6 199 c4 109 19 370 33 579 19
271 27 466 28 681 l1 300 -25 37 c-14 20 -60 64 -103 98 -66 52 -78 66 -75 88
3 23 13 29 138 68 178 57 460 126 640 158 401 70 596 -3 673 -250 32 -106 30
-281 -6 -390 -47 -140 -123 -246 -247 -338 l-58 -44 60 -114 c176 -336 329
-551 406 -571 27 -8 85 15 148 56 30 20 62 35 70 34 12 -2 27 39 69 182 29
102 79 266 110 365 134 421 206 684 246 894 26 140 21 165 -51 240 -72 75 -68
87 48 134 100 41 322 99 442 116 116 17 133 19 170 17 33 -1 37 -5 71 -73z"/>
<path d="M2565 3339 c-4 -5 -24 -88 -45 -182 -21 -95 -79 -311 -130 -481 -50
-169 -90 -310 -88 -311 4 -3 468 72 473 77 3 3 -53 363 -79 503 -22 119 -74
332 -91 373 -14 33 -29 40 -40 21z"/>
<path d="M785 3141 c-35 -12 -51 -24 -52 -37 -1 -10 -7 -143 -13 -294 -6 -151
-13 -314 -17 -362 l-6 -88 25 0 c60 0 156 40 207 86 142 127 184 418 90 612
-49 101 -116 124 -234 83z"/>
</g>
</svg>
